<svg width="26" height="26" viewBox="0 0 20 24" fill="none" xmlns="http://www.w3.org/2000/svg"><path fill-rule="evenodd" clip-rule="evenodd" d="M1.74507 5.20532L0.205078 7.87262L3.97074 10.0468L5.52584 7.35332C6.10091 6.33709 6.80003 5.50873 7.62313 4.86819C8.45993 4.22396 9.35943 3.66241 10.3216 3.18354L8.94783 0.490112C8.01463 0.637022 7.07443 0.936832 6.12731 1.38955C5.19396 1.83859 4.33753 2.39596 3.55802 3.06166C2.79226 3.72368 2.18794 4.43824 1.74507 5.20532ZM8.37423 9.03262L6.83423 11.7L8.07483 12.4162L7.83773 12.8268C7.22373 13.8903 6.49403 14.7416 5.64843 15.3808C4.80791 16.0113 3.93908 16.5499 3.04194 16.9966L4.41574 19.69C5.36778 19.5307 6.31043 19.2265 7.24383 18.7775C8.18223 18.3197 9.03173 17.7642 9.79253 17.1109C10.5669 16.4539 11.1756 15.7419 11.6185 14.9748L13.1585 12.3074L11.9179 11.5912L12.155 11.1806C12.73 10.1644 13.4291 9.33602 14.2522 8.69552C15.089 8.05132 15.9886 7.48972 16.9508 7.01092L15.577 4.31745C14.6437 4.46436 13.7035 4.76417 12.7564 5.21689C11.8231 5.66593 10.9666 6.2233 10.1871 6.88902C9.42143 7.55102 8.81713 8.26562 8.37423 9.03262ZM11.9179 11.5912L9.39283 10.1333L8.07483 12.4162L10.5999 13.8741L11.9179 11.5912ZM18.2215 18.787L19.7615 16.1197L15.9958 13.9456L14.4407 16.6391C13.8267 17.7025 13.097 18.5538 12.2514 19.193C11.4109 19.8235 10.5464 20.3646 9.65803 20.8163L11.0318 23.5098C11.9751 23.3454 12.9134 23.0387 13.8468 22.5897C14.7852 22.132 15.6347 21.5764 16.3955 20.9231C17.1699 20.2661 17.7786 19.5541 18.2215 18.787Z" fill="#326BF5"></path><path d="M13.1586 12.3074L11.6186 14.9747C11.1757 15.7418 10.567 16.4539 9.79257 17.1108C9.03177 17.7641 8.18227 18.3197 7.24387 18.7774C6.31057 19.2265 5.36783 19.5306 4.41579 19.6899L3.04199 16.9965C3.93913 16.5498 4.80796 16.0112 5.64849 15.3807C6.49407 14.7416 7.22377 13.8902 7.83777 12.8268L9.39287 10.1333L13.1586 12.3074ZM19.7616 16.1196L18.2216 18.787C17.7787 19.5541 17.17 20.2661 16.3956 20.9231C15.6348 21.5764 14.7853 22.1319 13.8469 22.5897C12.9136 23.0387 11.9752 23.3454 11.0319 23.5097L9.65807 20.8163C10.5465 20.3646 11.411 19.8235 12.2515 19.193C13.0971 18.5538 13.8268 17.7025 14.4408 16.639L15.9959 13.9455L19.7616 16.1196Z" fill="#94F6FC"></path><path d="M11.9159 11.5911L9.40137 10.1394L8.08512 12.4192L10.5996 13.871L11.9159 11.5911Z" fill="#57BBF9"></path></svg>