<svg width="133" height="47" viewBox="0 0 133 47" fill="none" xmlns="http://www.w3.org/2000/svg">
<path d="M45.733 22.4872C46.6608 22.4872 47.4705 22.2637 48.1621 21.8167C48.9381 21.3275 49.3261 20.6527 49.3261 19.7924C49.3261 18.755 48.8326 18.0338 47.8458 17.629C47.3819 17.435 46.2011 17.1946 44.3033 16.9078C42.5574 16.6463 41.2922 16.2457 40.5078 15.7059C39.327 14.9046 38.7366 13.6479 38.7366 11.9357C38.7366 10.2235 39.3818 8.86133 40.6723 7.84919C41.8531 6.90453 43.3249 6.4322 45.0877 6.4322C47.0277 6.4322 49.1363 6.84127 51.4136 7.65941V8.58299C51.4136 8.96254 51.2702 9.2957 50.9834 9.58247C50.7051 9.86081 50.334 9.99998 49.8701 9.99998C48.0567 9.43487 46.4626 9.15231 45.0877 9.15231C44.1768 9.15231 43.4051 9.38426 42.7725 9.84816C42.064 10.3627 41.7097 11.0585 41.7097 11.9357C41.7097 12.8551 42.2031 13.4919 43.19 13.8461C43.5358 13.9726 44.7377 14.1877 46.7957 14.4913C48.5248 14.7528 49.7942 15.183 50.6039 15.7818C51.7341 16.6084 52.2992 17.8904 52.2992 19.6279V19.7798C52.2655 21.4835 51.5738 22.8373 50.2243 23.841C49.0013 24.7519 47.5042 25.2073 45.733 25.2073C43.793 25.2073 41.6844 24.7983 39.4071 23.9801V23.0566C39.4071 22.677 39.5505 22.3438 39.8373 22.0571C40.1156 21.7787 40.4867 21.6396 40.9506 21.6396C42.764 22.2047 44.3582 22.4872 45.733 22.4872ZM61.1326 25.0555H58.1595V11.7839C58.1595 10.0801 58.868 8.73481 60.285 7.74797C61.5417 6.87079 63.0684 6.4322 64.8649 6.4322H64.9155C66.7289 6.44063 68.2598 6.88344 69.5081 7.76063C70.9166 8.74746 71.6209 10.0885 71.6209 11.7839C71.6209 15.6975 69.1201 17.6543 64.1184 17.6543H61.1326V25.0555ZM61.1326 15.0227H64.1184C67.138 15.0227 68.6478 13.9431 68.6478 11.7839C68.6478 10.9151 68.2682 10.2446 67.5091 9.77225C66.8344 9.35896 65.9656 9.15231 64.9029 9.15231H64.8396C63.8022 9.15231 62.9503 9.35896 62.284 9.77225C61.5164 10.2361 61.1326 10.9067 61.1326 11.7839V15.0227ZM76.3931 13.4539C76.3931 11.2694 77.089 9.54452 78.4807 8.27935C79.8386 7.04791 81.6394 6.4322 83.883 6.4322C85.8313 6.4322 87.9442 6.84127 90.2215 7.65941V8.58299C90.2215 8.96254 90.0781 9.29148 89.7913 9.56982C89.5045 9.85659 89.1292 9.99998 88.6653 9.99998C86.8603 9.43487 85.2662 9.15231 83.883 9.15231C82.5419 9.15231 81.4665 9.51921 80.6568 10.253C79.7965 11.029 79.3663 12.0959 79.3663 13.4539V14.3142H87.6152C88.0285 14.3142 88.3659 14.445 88.6274 14.7064C88.9057 14.9848 89.0449 15.3095 89.0449 15.6806V16.9331H79.3663V18.1856C79.3663 19.552 79.7965 20.619 80.6568 21.3865C81.4665 22.1203 82.5419 22.4872 83.883 22.4872C85.2662 22.4872 86.8603 22.2047 88.6653 21.6396C89.1292 21.6396 89.5045 21.7829 89.7913 22.0697C90.0781 22.3481 90.2215 22.677 90.2215 23.0566V23.9801C87.9442 24.7983 85.8313 25.2073 83.883 25.2073C81.6394 25.2073 79.8386 24.5916 78.4807 23.3602C77.089 22.1035 76.3931 20.3786 76.3931 18.1856V13.4539ZM102.42 9.24088L99.7634 18.3628H105.355L102.699 9.24088H102.42ZM99.0043 20.9943L98.2832 23.4741C98.0132 24.5284 97.3343 25.0555 96.2462 25.0555H94.7027L99.6242 8.11487C99.8941 7.069 100.573 6.54606 101.661 6.54606H103.458C104.546 6.54606 105.225 7.07322 105.495 8.12753L110.416 25.0555H108.873C107.785 25.0555 107.101 24.5242 106.823 23.4614L106.102 20.9943H99.0043ZM122.286 14.5546C123.062 14.5462 123.56 14.4703 123.779 14.3269C124.057 14.1413 124.31 13.6563 124.538 12.8719L126.018 7.69737C126.195 7.01417 126.723 6.67258 127.6 6.67258H129.194L127.208 13.9347C127.014 14.6769 126.765 15.1408 126.461 15.3264C126.908 15.6216 127.33 16.5198 127.726 18.0212L129.649 25.0555H128.055C127.178 25.0555 126.651 24.7181 126.474 24.0434L124.829 18.2616C124.677 17.7555 124.492 17.4434 124.272 17.3253C124.104 17.2325 123.703 17.1862 123.07 17.1862H118.781V23.6891C118.781 24.0518 118.642 24.3723 118.364 24.6507C118.094 24.9206 117.757 25.0555 117.352 25.0555H115.808V6.67258H117.352C117.757 6.67258 118.094 6.80753 118.364 7.07743C118.642 7.35577 118.781 7.67628 118.781 8.03896V14.5546H122.286Z" fill="url(#paint0_linear_12_2652)"/>
<path d="M71.5846 41.7159V36.8732H72.1291V38.7392C72.4123 38.3544 72.8334 38.122 73.3126 38.122C74.2274 38.122 74.8735 38.8481 74.8735 39.9662C74.8735 41.1061 74.2274 41.8031 73.3126 41.8031C72.8188 41.8031 72.3905 41.549 72.1291 41.1932V41.7159H71.5846ZM72.1291 40.7648C72.3179 41.0698 72.7462 41.3166 73.1746 41.3166C73.8861 41.3166 74.3072 40.743 74.3072 39.9662C74.3072 39.1893 73.8861 38.6085 73.1746 38.6085C72.7462 38.6085 72.3179 38.8699 72.1291 39.1748V40.7648ZM75.6518 42.5945C75.7317 42.6308 75.8624 42.6525 75.9495 42.6525C76.1891 42.6525 76.3488 42.5727 76.4723 42.2823L76.7046 41.7522L75.238 38.2092H75.8261L76.995 41.0843L78.1567 38.2092H78.752L76.995 42.4275C76.7844 42.9357 76.4287 43.1317 75.964 43.139C75.8479 43.139 75.6663 43.1172 75.5647 43.0882L75.6518 42.5945Z" fill="#ECECEC"/>
<path d="M90.8016 40.0852C90.8016 41.0367 90.4996 41.7852 89.8958 42.3305C89.3065 42.8648 88.5251 43.132 87.5516 43.132H84.2961V38.0978C84.2961 37.1499 84.5981 36.4015 85.2019 35.8525C85.7912 35.3181 86.5744 35.051 87.5516 35.051C88.5251 35.051 89.3065 35.3181 89.8958 35.8525C90.4996 36.4015 90.8016 37.1499 90.8016 38.0978V40.0852ZM87.5516 41.9901C88.1335 41.9901 88.6002 41.8309 88.9515 41.5125C89.3248 41.1795 89.5115 40.7183 89.5115 40.1291V38.0978C89.5115 37.5086 89.3248 37.0456 88.9515 36.7089C88.6002 36.3905 88.1335 36.2313 87.5516 36.2313C86.966 36.2313 86.4975 36.3905 86.1462 36.7089C85.7729 37.0456 85.5862 37.5086 85.5862 38.0978V41.9901H87.5516ZM96.9041 36.2697L95.7512 40.2279H98.1777L97.0249 36.2697H96.9041ZM95.4218 41.3698L95.1089 42.4458C94.9918 42.9033 94.6972 43.132 94.225 43.132H93.5553L95.6908 35.7811C95.8079 35.3273 96.1026 35.1004 96.5747 35.1004H97.3543C97.8264 35.1004 98.121 35.3291 98.2381 35.7866L100.374 43.132H99.7039C99.2318 43.132 98.9353 42.9014 98.8146 42.4403L98.5016 41.3698H95.4218ZM103.276 35.7482C103.276 35.5908 103.336 35.4517 103.457 35.3309C103.574 35.2138 103.72 35.1553 103.896 35.1553H104.566V42.5391C104.566 42.6965 104.505 42.8356 104.385 42.9563C104.267 43.0735 104.121 43.132 103.945 43.132H103.276V35.7482ZM110.784 42.0176C111.186 42.0176 111.537 41.9206 111.838 41.7266C112.174 41.5143 112.343 41.2215 112.343 40.8482C112.343 40.3981 112.129 40.0852 111.7 39.9095C111.499 39.8253 110.987 39.721 110.163 39.5966C109.406 39.4831 108.857 39.3093 108.516 39.075C108.004 38.7273 107.748 38.182 107.748 37.439C107.748 36.6961 108.028 36.105 108.588 35.6658C109.1 35.2559 109.739 35.051 110.504 35.051C111.345 35.051 112.26 35.2285 113.248 35.5835V35.9842C113.248 36.1489 113.186 36.2935 113.062 36.4179C112.941 36.5387 112.78 36.5991 112.579 36.5991C111.792 36.3539 111.1 36.2313 110.504 36.2313C110.108 36.2313 109.773 36.3319 109.499 36.5332C109.191 36.7565 109.038 37.0584 109.038 37.439C109.038 37.838 109.252 38.1143 109.68 38.268C109.83 38.3229 110.352 38.4162 111.245 38.548C111.995 38.6615 112.546 38.8481 112.897 39.108C113.388 39.4666 113.633 40.0229 113.633 40.7769V40.8427C113.618 41.582 113.318 42.1695 112.732 42.605C112.202 43.0003 111.552 43.1979 110.784 43.1979C109.942 43.1979 109.027 43.0204 108.039 42.6654V42.2646C108.039 42.0999 108.101 41.9554 108.225 41.8309C108.346 41.7101 108.507 41.6498 108.708 41.6498C109.495 41.895 110.187 42.0176 110.784 42.0176ZM120.141 42.5391C120.141 42.6965 120.081 42.8356 119.96 42.9563C119.843 43.0735 119.697 43.132 119.521 43.132H118.851V39.7118C118.339 39.7082 117.973 39.6203 117.753 39.4483C117.508 39.2653 117.301 38.8518 117.133 38.2076L116.299 35.1553H116.99C117.371 35.1553 117.602 35.3035 117.682 35.6L118.396 38.1033C118.458 38.3266 118.537 38.462 118.632 38.5096C118.709 38.5535 118.882 38.5754 119.153 38.5754H119.84C120.107 38.5754 120.279 38.5535 120.356 38.5096C120.451 38.462 120.531 38.3266 120.597 38.1033L121.311 35.6C121.388 35.3035 121.616 35.1553 121.997 35.1553H122.689L121.854 38.2076C121.69 38.8261 121.487 39.2306 121.245 39.4209C121.014 39.6002 120.647 39.6954 120.141 39.7064V42.5391ZM128.094 42.0176C128.497 42.0176 128.848 41.9206 129.148 41.7266C129.485 41.5143 129.653 41.2215 129.653 40.8482C129.653 40.3981 129.439 40.0852 129.011 39.9095C128.81 39.8253 128.297 39.721 127.474 39.5966C126.716 39.4831 126.167 39.3093 125.827 39.075C125.314 38.7273 125.058 38.182 125.058 37.439C125.058 36.6961 125.338 36.105 125.898 35.6658C126.411 35.2559 127.049 35.051 127.814 35.051C128.656 35.051 129.571 35.2285 130.559 35.5835V35.9842C130.559 36.1489 130.497 36.2935 130.372 36.4179C130.252 36.5387 130.091 36.5991 129.889 36.5991C129.102 36.3539 128.411 36.2313 127.814 36.2313C127.419 36.2313 127.084 36.3319 126.809 36.5332C126.502 36.7565 126.348 37.0584 126.348 37.439C126.348 37.838 126.562 38.1143 126.991 38.268C127.141 38.3229 127.662 38.4162 128.555 38.548C129.306 38.6615 129.856 38.8481 130.208 39.108C130.698 39.4666 130.943 40.0229 130.943 40.7769V40.8427C130.929 41.582 130.629 42.1695 130.043 42.605C129.512 43.0003 128.863 43.1979 128.094 43.1979C127.252 43.1979 126.337 43.0204 125.349 42.6654V42.2646C125.349 42.0999 125.411 41.9554 125.536 41.8309C125.657 41.7101 125.818 41.6498 126.019 41.6498C126.806 41.895 127.498 42.0176 128.094 42.0176Z" fill="#ECECEC"/>
<path fill-rule="evenodd" clip-rule="evenodd" d="M5.60434 8.6553L4.06435 11.3226L7.83001 13.4968L9.38511 10.8033C9.96018 9.78707 10.6593 8.95871 11.4824 8.31817C12.3192 7.67394 13.2187 7.11239 14.1809 6.63352L12.8071 3.94009C11.8739 4.087 10.9337 4.38681 9.98658 4.83953C9.05323 5.28857 8.1968 5.84594 7.41729 6.51164C6.65153 7.17366 6.04721 7.88822 5.60434 8.6553ZM12.2335 12.4826L10.6935 15.15L11.9341 15.8662L11.697 16.2768C11.083 17.3403 10.3533 18.1916 9.5077 18.8308C8.66718 19.4613 7.79835 19.9999 6.90121 20.4466L8.27501 23.14C9.22705 22.9807 10.1697 22.6765 11.1031 22.2275C12.0415 21.7697 12.891 21.2142 13.6518 20.5609C14.4262 19.9039 15.0349 19.1919 15.4778 18.4248L17.0178 15.7574L15.7772 15.0412L16.0143 14.6306C16.5893 13.6144 17.2884 12.786 18.1115 12.1455C18.9483 11.5013 19.8479 10.9397 20.8101 10.4609L19.4363 7.76743C18.503 7.91434 17.5628 8.21415 16.6157 8.66687C15.6824 9.11591 14.8259 9.67328 14.0464 10.339C13.2807 11.001 12.6764 11.7156 12.2335 12.4826ZM15.7772 15.0412L13.2521 13.5833L11.9341 15.8662L14.4592 17.3241L15.7772 15.0412ZM22.0808 22.237L23.6208 19.5697L19.8551 17.3956L18.3 20.0891C17.686 21.1525 16.9563 22.0038 16.1107 22.643C15.2702 23.2735 14.4057 23.8146 13.5173 24.2663L14.8911 26.9598C15.8344 26.7954 16.7727 26.4887 17.7061 26.0397C18.6445 25.582 19.494 25.0264 20.2548 24.3731C21.0292 23.7161 21.6379 23.0041 22.0808 22.237Z" fill="#326BF5"/>
<path d="M17.0178 15.7574L15.4778 18.4247C15.0349 19.1918 14.4262 19.9039 13.6518 20.5608C12.891 21.2141 12.0415 21.7697 11.1031 22.2274C10.1698 22.6765 9.22706 22.9806 8.27502 23.1399L6.90122 20.4465C7.79836 19.9998 8.66719 19.4612 9.50772 18.8307C10.3533 18.1916 11.083 17.3402 11.697 16.2768L13.2521 13.5833L17.0178 15.7574ZM23.6208 19.5696L22.0808 22.237C21.6379 23.0041 21.0292 23.7161 20.2548 24.3731C19.494 25.0264 18.6445 25.5819 17.7061 26.0397C16.7728 26.4887 15.8344 26.7954 14.8911 26.9597L13.5173 24.2663C14.4057 23.8146 15.2702 23.2735 16.1107 22.643C16.9563 22.0038 17.686 21.1525 18.3 20.089L19.8551 17.3955L23.6208 19.5696Z" fill="#94F6FC"/>
<rect x="13.2606" y="13.5894" width="2.90349" height="2.6325" transform="rotate(30 13.2606 13.5894)" fill="#57BBF9"/>
<defs>
<linearGradient id="paint0_linear_12_2652" x1="47.5152" y1="15.9244" x2="136.815" y2="23.7617" gradientUnits="userSpaceOnUse">
<stop stop-color="#25EBEB"/>
<stop offset="0.734375" stop-color="#00AEE2"/>
</linearGradient>
</defs>
</svg>
